<?xml version="1.0" encoding="UTF-8" standalone="no"?><svg xmlns="http://www.w3.org/2000/svg" xmlns:xlink="http://www.w3.org/1999/xlink" contentScriptType="application/ecmascript" contentStyleType="text/css" height="466px" preserveAspectRatio="none" style="width:344px;height:466px;background:#FFFFFE;" version="1.1" viewBox="0 0 344 466" width="344px" zoomAndPan="magnify"><defs/><g><!--MD5=[89b32fd22c7afa88e0ae1984250e1822]
entity Engine--><rect fill="#CDFFAB" height="36.2969" style="stroke:#000000;stroke-width:1.5;" width="68" x="121" y="103"/><text fill="#000000" font-family="sans-serif" font-size="14" lengthAdjust="spacing" textLength="48" x="131" y="125.9951">Engine</text><!--MD5=[f08d99a5d954cab98c847de775e5956b]
entity Search--><rect fill="#A1FDFF" height="36.2969" style="stroke:#000000;stroke-width:1.5;" width="68" x="18" y="207.5"/><text fill="#000000" font-family="sans-serif" font-size="14" lengthAdjust="spacing" textLength="48" x="28" y="230.4951">Search</text><!--MD5=[b7aac19e27ec720d3ba4cb6dfc8e7ff8]
entity Evaluation--><rect fill="#F5CCFF" height="36.2969" style="stroke:#000000;stroke-width:1.5;" width="90" x="7" y="312"/><text fill="#000000" font-family="sans-serif" font-size="14" lengthAdjust="spacing" textLength="70" x="17" y="334.9951">Evaluation</text><!--MD5=[e91435ab1f527aa0e9f53b055fdf6d98]
entity IComm--><rect fill="#FFDC96" height="36.2969" style="stroke:#000000;stroke-width:1.5;" width="68" x="121" y="207.5"/><text fill="#000000" font-family="sans-serif" font-size="14" lengthAdjust="spacing" textLength="48" x="131" y="230.4951">IComm</text><!--MD5=[f5bd6f86c1355628a58cd48367c1c291]
entity Uci--><rect fill="#A1FDFF" height="36.2969" style="stroke:#000000;stroke-width:1.5;" width="43" x="132.5" y="312"/><text fill="#000000" font-family="sans-serif" font-size="14" lengthAdjust="spacing" textLength="23" x="142.5" y="334.9951">UCI</text><!--MD5=[07bb0ef4b23ed48ab26ad6dc6ccda7f9]
entity XBoard--><rect fill="#A1FDFF" height="36.2969" style="stroke:#000000;stroke-width:1.5;" width="70" x="211" y="312"/><text fill="#000000" font-family="sans-serif" font-size="14" lengthAdjust="spacing" textLength="50" x="221" y="334.9951">XBoard</text><!--MD5=[d5b990657b755b3990e29dd75f2a2198]
entity TT--><rect fill="#FEFECE" height="52.5938" style="stroke:#000000;stroke-width:1.5;" width="114" x="224" y="199"/><text fill="#000000" font-family="sans-serif" font-size="14" lengthAdjust="spacing" textLength="94" x="234" y="221.9951">Transposition</text><text fill="#000000" font-family="sans-serif" font-size="14" lengthAdjust="spacing" textLength="38" x="234" y="238.292">Table</text><!--MD5=[563c8103e92128030235f3c56ede6b9d]
entity Board--><rect fill="#FEFECE" height="36.2969" style="stroke:#000000;stroke-width:1.5;" width="61" x="189.5" y="7"/><text fill="#000000" font-family="sans-serif" font-size="14" lengthAdjust="spacing" textLength="41" x="199.5" y="29.9951">Board</text><!--MD5=[4ed3bb14fc6817bee82aa1da62dce697]
entity MoveGenerator--><rect fill="#FEFECE" height="36.2969" style="stroke:#000000;stroke-width:1.5;" width="127" x="27.5" y="7"/><text fill="#000000" font-family="sans-serif" font-size="14" lengthAdjust="spacing" textLength="107" x="37.5" y="29.9951">MoveGenerator</text><!--MD5=[beb5ad5244d3d849df9473931f7c2e5e]
entity GUI--><rect fill="#CDFFAB" height="52.5938" style="stroke:#000000;stroke-width:1.5;" width="126" x="137" y="408"/><text fill="#000000" font-family="sans-serif" font-size="14" lengthAdjust="spacing" textLength="106" x="147" y="430.9951">Chess Program</text><text fill="#000000" font-family="sans-serif" font-size="14" lengthAdjust="spacing" textLength="106" x="147" y="447.292">(User Interface)</text><!--MD5=[9966e320f5d303ddf3adf1b667bcf855]
reverse link Engine to IComm--><path d="M155,152.41 C155,170.35 155,192.41 155,207.37 " fill="none" id="Engine-backto-IComm" style="stroke:#A80036;stroke-width:1.0;"/><polygon fill="#A80036" points="155,139.39,151,145.39,155,151.39,159,145.39,155,139.39" style="stroke:#A80036;stroke-width:1.0;"/><!--MD5=[91e92f148d6dd3e2e11fcca91f82d4fe]
link Board to Engine--><path d="M208.08,43.24 C198.64,56.89 185.27,76.22 174.31,92.07 " fill="none" id="Board-to-Engine" style="stroke:#A80036;stroke-width:1.0;"/><polygon fill="#A80036" points="166.85,102.87,173.552,100.2086,173.673,92.9985,166.971,95.6599,166.85,102.87" style="stroke:#A80036;stroke-width:1.0;"/><!--MD5=[82e97750006bd17c44d4f056763a105f]
link MoveGenerator to Engine--><path d="M102.74,43.24 C112.03,56.89 125.2,76.22 135.99,92.07 " fill="none" id="MoveGenerator-to-Engine" style="stroke:#A80036;stroke-width:1.0;"/><polygon fill="#A80036" points="143.34,102.87,143.2697,95.6592,136.5865,92.9508,136.6569,100.1616,143.34,102.87" style="stroke:#A80036;stroke-width:1.0;"/><!--MD5=[a4517b7e117067201e6949aba7f31f23]
reverse link Engine to TT--><path d="M186.44,147.58 C205.67,163.22 230.18,183.16 249.43,198.82 " fill="none" id="Engine-backto-TT" style="stroke:#A80036;stroke-width:1.0;"/><polygon fill="#A80036" points="176.09,139.16,178.2162,146.0505,185.3945,146.738,183.2683,139.8475,176.09,139.16" style="stroke:#A80036;stroke-width:1.0;"/><!--MD5=[416db41f77c4103c5e5d1f8412824d61]
reverse link IComm to Uci--><path d="M154.63,263.98 C154.47,280.39 154.29,298.83 154.17,311.87 " fill="none" id="IComm-backto-Uci" style="stroke:#A80036;stroke-width:1.0;"/><polygon fill="none" points="147.64,263.82,154.83,243.89,161.63,263.96,147.64,263.82" style="stroke:#A80036;stroke-width:1.0;"/><!--MD5=[41c2d4f10d5fff81e0c92935ae66a3e5]
reverse link IComm to XBoard--><path d="M183.89,259.05 C199.46,276.58 218.04,297.5 230.79,311.87 " fill="none" id="IComm-backto-XBoard" style="stroke:#A80036;stroke-width:1.0;"/><polygon fill="none" points="178.48,263.49,170.44,243.89,188.95,254.2,178.48,263.49" style="stroke:#A80036;stroke-width:1.0;"/><!--MD5=[e1065f988d0de1d5934ea5c661e8728b]
reverse link Engine to Search--><path d="M128.12,148.75 C109.5,167.28 85.28,191.38 69.21,207.37 " fill="none" id="Engine-backto-Search" style="stroke:#A80036;stroke-width:1.0;"/><polygon fill="#A80036" points="137.53,139.39,130.4557,140.7877,129.025,147.8555,136.0993,146.4578,137.53,139.39" style="stroke:#A80036;stroke-width:1.0;"/><!--MD5=[07786af87e6cbb241fa755fde7dfeeb0]
link Search to Evaluation--><path d="M52,243.89 C52,261.22 52,287.91 52,306.77 " fill="none" id="Search-to-Evaluation" style="stroke:#A80036;stroke-width:1.0;"/><polygon fill="#A80036" points="52,311.87,56,302.87,52,306.87,48,302.87,52,311.87" style="stroke:#A80036;stroke-width:1.0;"/><!--MD5=[79118beb8b521c6a0328b55ae8b6430d]
reverse link Uci to GUI--><path d="M153.36,353.61 C158.1,369.67 167.64,391.25 177.32,407.94 " fill="none" id="Uci-backto-GUI" style="stroke:#A80036;stroke-width:1.0;stroke-dasharray:7.0,7.0;"/><polygon fill="#A80036" points="151.95,348.39,150.4273,358.1204,153.2499,353.2181,158.1522,356.0406,151.95,348.39" style="stroke:#A80036;stroke-width:1.0;"/><!--MD5=[97777214f4d7f76ce00ec712761eafca]
link Uci to GUI--><path d="M172.24,348.39 C182.17,363.32 192.66,385.19 198.78,403.02 " fill="none" id="Uci-to-GUI" style="stroke:#A80036;stroke-width:1.0;stroke-dasharray:7.0,7.0;"/><polygon fill="#A80036" points="200.39,407.94,201.3918,398.1422,198.8346,403.1881,193.7887,400.6309,200.39,407.94" style="stroke:#A80036;stroke-width:1.0;"/><!--MD5=[19b542b27d40c7ded1e567cbadec38f9]
reverse link XBoard to GUI--><path d="M225.58,352.77 C215.73,368.91 205.65,390.96 200.27,407.94 " fill="none" id="XBoard-backto-GUI" style="stroke:#A80036;stroke-width:1.0;stroke-dasharray:7.0,7.0;"/><polygon fill="#A80036" points="228.34,348.39,220.1514,353.8624,225.6695,352.6171,226.9148,358.1352,228.34,348.39" style="stroke:#A80036;stroke-width:1.0;"/><!--MD5=[d5392b2b8ae9d4c3f064353e7ee6b5a8]
link XBoard to GUI--><path d="M248.63,348.39 C245.13,363.45 235.87,385.57 225.88,403.48 " fill="none" id="XBoard-to-GUI" style="stroke:#A80036;stroke-width:1.0;stroke-dasharray:7.0,7.0;"/><polygon fill="#A80036" points="223.33,407.94,231.2723,402.116,225.8138,403.6005,224.3292,398.142,223.33,407.94" style="stroke:#A80036;stroke-width:1.0;"/><!--MD5=[042f67999a9f1aefae8f8f85c53e2c65]
@startuml architecture
skinparam shadowing false
skinparam componentStyle rectangle
skinparam backgroundColor #FFFFFE

hide empty methods
hide empty members

component "Engine" as Engine #cdffab
component "Search" as Search #a1fdff
component "Evaluation" as Evaluation #f5ccff
component IComm #ffdc96
component "UCI" as Uci #a1fdff
component "XBoard" as XBoard #a1fdff
component "Transposition\nTable" as TT
component Board
component MoveGenerator
component "Chess Program\n(User Interface)" as GUI #cdffab

Engine *- - IComm
Engine *-up- Board
Engine *-up- MoveGenerator
Engine *- - TT
IComm <|- - Uci
IComm <|- - XBoard
Engine *- - Search
Search - -> Evaluation
Uci <.. GUI
Uci ..> GUI
XBoard <.. GUI
XBoard ..> GUI
@enduml

PlantUML version 1.2022.0(Tue Jan 11 17:16:42 CET 2022)
(GPL source distribution)
Java Runtime: OpenJDK Runtime Environment
JVM: OpenJDK 64-Bit Server VM
Default Encoding: UTF-8
Language: en
Country: US
--></g></svg>