<?xml version="1.0" encoding="UTF-8" standalone="no"?><svg xmlns="http://www.w3.org/2000/svg" xmlns:xlink="http://www.w3.org/1999/xlink" contentScriptType="application/ecmascript" contentStyleType="text/css" height="522px" preserveAspectRatio="none" style="width:347px;height:522px;background:#FFFFFE;" version="1.1" viewBox="0 0 347 522" width="347px" zoomAndPan="magnify"><defs/><g><!--MD5=[1354d4287b836671d015041ce990275d]
cluster Engine--><rect fill="#CDFFAB" height="379" style="stroke:#000000;stroke-width:1.5;" width="334" x="7" y="7"/><text fill="#000000" font-family="sans-serif" font-size="14" font-weight="bold" lengthAdjust="spacing" textLength="53" x="147.5" y="21.9951">Engine</text><!--MD5=[6ede145552bb9f32f7a4f497e33b7a70]
cluster Uci--><rect fill="#FEFECE" height="87" style="stroke:#000000;stroke-width:1.5;" width="143" x="31" y="275"/><text fill="#000000" font-family="sans-serif" font-size="14" font-weight="bold" lengthAdjust="spacing" textLength="26" x="89.5" y="289.9951">UCI</text><path d="M23.5,42 L23.5,82.2656 A0,0 0 0 0 23.5,82.2656 L78.73,82.2656 L77.13,167.3 L86.73,82.2656 L144.5,82.2656 A0,0 0 0 0 144.5,82.2656 L144.5,52 L134.5,42 L23.5,42 A0,0 0 0 0 23.5,42 " fill="#FBFB77" style="stroke:#A80036;stroke-width:1.0;"/><path d="M134.5,42 L134.5,52 L144.5,52 L134.5,42 " fill="#FBFB77" style="stroke:#A80036;stroke-width:1.0;"/><text fill="#000000" font-family="sans-serif" font-size="13" lengthAdjust="spacing" textLength="92" x="29.5" y="59.0669">Knows nothing</text><text fill="#000000" font-family="sans-serif" font-size="13" lengthAdjust="spacing" textLength="100" x="29.5" y="74.1997">about protocols</text><path d="M193,308 L193,348.2656 A0,0 0 0 0 193,348.2656 L325,348.2656 A0,0 0 0 0 325,348.2656 L325,318 L315,308 L264.1,308 L265.53,212.27 L256.1,308 L193,308 A0,0 0 0 0 193,308 " fill="#FBFB77" style="stroke:#A80036;stroke-width:1.0;"/><path d="M315,308 L315,318 L325,318 L315,308 " fill="#FBFB77" style="stroke:#A80036;stroke-width:1.0;"/><text fill="#000000" font-family="sans-serif" font-size="13" lengthAdjust="spacing" textLength="111" x="199" y="325.0669">Knows everything</text><text fill="#000000" font-family="sans-serif" font-size="13" lengthAdjust="spacing" textLength="100" x="199" y="340.1997">about protocols</text><!--MD5=[2456f3a6f5aa4d75f9c9b6fd42c52dfa]
entity Main--><rect fill="#A1FDFF" height="36.2969" style="stroke:#000000;stroke-width:1.5;" width="105" x="23.5" y="167.5"/><text fill="#000000" font-family="sans-serif" font-size="14" lengthAdjust="spacing" textLength="85" x="33.5" y="190.4951">Main Thread</text><!--MD5=[a59b687cb35fdfab55634fb65dbea243]
entity Handler--><rect fill="#F5CCFF" height="52.5938" style="stroke:#000000;stroke-width:1.5;" width="73" x="230.5" y="159"/><text fill="#000000" font-family="sans-serif" font-size="14" lengthAdjust="spacing" textLength="45" x="240.5" y="181.9951">Comm</text><text fill="#000000" font-family="sans-serif" font-size="14" lengthAdjust="spacing" textLength="53" x="240.5" y="198.292">Handler</text><!--MD5=[a096b82a31643400ba33981c0f5b0661]
entity Action--><rect fill="#F5CCFF" height="36.2969" style="stroke:#000000;stroke-width:1.5;" width="63" x="214.5" y="44"/><text fill="#000000" font-family="sans-serif" font-size="14" lengthAdjust="spacing" textLength="43" x="224.5" y="66.9951">Action</text><!--MD5=[7b05989e369ae1af2c6a9837cb382bd0]
entity Out--><rect fill="#A1FDFF" height="36.2969" style="stroke:#000000;stroke-width:1.5;" width="43" x="114.5" y="310"/><text fill="#000000" font-family="sans-serif" font-size="14" lengthAdjust="spacing" textLength="23" x="124.5" y="332.9951">out</text><!--MD5=[a88daa769981030d98eed5c15618f282]
entity In--><rect fill="#A1FDFF" height="36.2969" style="stroke:#000000;stroke-width:1.5;" width="32" x="47" y="310"/><text fill="#000000" font-family="sans-serif" font-size="14" lengthAdjust="spacing" textLength="12" x="57" y="332.9951">in</text><!--MD5=[beb5ad5244d3d849df9473931f7c2e5e]
entity GUI--><rect fill="#CDFFAB" height="52.5938" style="stroke:#000000;stroke-width:1.5;" width="78" x="60" y="464"/><text fill="#000000" font-family="sans-serif" font-size="14" lengthAdjust="spacing" textLength="44" x="70" y="486.9951">Chess</text><text fill="#000000" font-family="sans-serif" font-size="14" lengthAdjust="spacing" textLength="58" x="70" y="503.292">Program</text><!--MD5=[7bbbd378693d9edf286615553e1ef20a]
link Main to Handler--><path d="M140.7,185.5 C140.7,185.5 194.24,185.5 217.21,185.5 " fill="none" id="Main-Handler" style="stroke:#A80036;stroke-width:1.0;"/><polygon fill="#A80036" points="230.49,185.5,221.49,181.5,225.49,185.5,221.49,189.5,230.49,185.5" style="stroke:#A80036;stroke-width:1.0;"/><line style="stroke:#A80036;stroke-width:1.0;" x1="225.49" x2="217.49" y1="185.5" y2="185.5"/><polygon fill="#A80036" points="128.7,185.5,134.7,189.5,140.7,185.5,134.7,181.5,128.7,185.5" style="stroke:#A80036;stroke-width:1.0;"/><text fill="#000000" font-family="sans-serif" font-size="13" lengthAdjust="spacing" textLength="65" x="147" y="178.5669">command</text><!--MD5=[77cdefe4f57fc34dc0b1bd649eed39cb]
reverse link Action to Handler--><path d="M249.84,85.21 C253.44,106.03 258.81,137.13 262.59,158.97 " fill="none" id="Action-backto-Handler" style="stroke:#A80036;stroke-width:1.0;"/><polygon fill="#A80036" points="248.96,80.15,246.5612,89.7023,249.8167,85.0761,254.4429,88.3315,248.96,80.15" style="stroke:#A80036;stroke-width:1.0;"/><text fill="#000000" font-family="sans-serif" font-size="13" lengthAdjust="spacing" textLength="21" x="258" y="125.0669">call</text><!--MD5=[034759b89e4272c9b54ab9fdeb40e86c]
link Action to Handler--><path d="M223.71,80.15 C209.85,93.04 196.06,111.42 204,129 C208.99,140.04 217.38,149.77 226.44,157.86 " fill="none" id="Action-to-Handler" style="stroke:#A80036;stroke-width:1.0;"/><polygon fill="#A80036" points="230.35,161.23,226.1199,152.3359,226.5537,157.976,220.9135,158.4099,230.35,161.23" style="stroke:#A80036;stroke-width:1.0;"/><text fill="#000000" font-family="sans-serif" font-size="13" lengthAdjust="spacing" textLength="36" x="209" y="125.0669">result</text><!--MD5=[01ee0539ada578e4ab0c9b1489f44307]
link Handler to Out--><path d="M230.09,208.04 C207.99,222.44 180.66,243.1 162,267 C153.2,278.28 146.76,292.99 142.5,305.02 " fill="none" id="Handler-to-Out" style="stroke:#A80036;stroke-width:1.0;"/><polygon fill="#A80036" points="140.8,310,147.4932,302.775,142.4154,305.2681,139.9222,300.1903,140.8,310" style="stroke:#A80036;stroke-width:1.0;"/><text fill="#000000" font-family="sans-serif" font-size="13" lengthAdjust="spacing" textLength="31" x="185" y="255.0669">reply</text><!--MD5=[d3947de5ae4cec9f22d7279066330b6b]
reverse link Main to In--><path d="M73.94,208.71 C71.36,236.69 66.96,284.16 64.61,309.63 " fill="none" id="Main-backto-In" style="stroke:#A80036;stroke-width:1.0;"/><polygon fill="#A80036" points="74.41,203.73,69.6049,212.3272,73.9535,208.7091,77.5715,213.0576,74.41,203.73" style="stroke:#A80036;stroke-width:1.0;"/><text fill="#000000" font-family="sans-serif" font-size="13" lengthAdjust="spacing" textLength="65" x="75" y="255.0669">command</text><!--MD5=[f1e4206aca0977c11b1d51295e8a8821]
reverse link In to GUI--><path d="M51.67,351.08 C42.11,372.87 31.65,406.77 43,434 C47.69,445.24 55.88,455.38 64.58,463.82 " fill="none" id="In-backto-GUI" style="stroke:#A80036;stroke-width:1.0;stroke-dasharray:7.0,7.0;"/><polygon fill="#A80036" points="53.81,346.35,46.4443,352.8881,51.741,350.9018,53.7272,356.1985,53.81,346.35" style="stroke:#A80036;stroke-width:1.0;"/><text fill="#000000" font-family="sans-serif" font-size="13" lengthAdjust="spacing" textLength="65" x="44" y="415.0669">command</text><text fill="#000000" font-family="sans-serif" font-size="13" lengthAdjust="spacing" textLength="41" x="56" y="430.1997">(stdin)</text><!--MD5=[8919138d9e7cb6b09491e0b5b50bf2b4]
link Out to GUI--><path d="M132.72,346.16 C128.66,367.01 121.38,403.21 114,434 C112.05,442.12 109.78,450.86 107.6,458.94 " fill="none" id="Out-to-GUI" style="stroke:#A80036;stroke-width:1.0;stroke-dasharray:7.0,7.0;"/><polygon fill="#A80036" points="106.25,463.88,112.479,456.2512,107.5668,459.0565,104.7614,454.1443,106.25,463.88" style="stroke:#A80036;stroke-width:1.0;"/><text fill="#000000" font-family="sans-serif" font-size="13" lengthAdjust="spacing" textLength="31" x="132" y="415.0669">reply</text><text fill="#000000" font-family="sans-serif" font-size="13" lengthAdjust="spacing" textLength="51" x="122" y="430.1997">(stdout)</text><!--MD5=[ade4f639b72cf9624caa14af85001a64]
@startuml comm_threads
skinparam shadowing false
skinparam componentStyle rectangle
skinparam backgroundColor #FFFFFE

hide empty methods
hide empty members

component "Engine" as Engine #cdffab {
    note "Knows nothing\nabout protocols" as n1
    note "Knows everything\nabout protocols" as n2

    component "Main Thread" as Main #a1fdff
    component "Comm\nHandler" as Handler #f5ccff
    component "Action" as Action #f5ccff
    component "UCI" as Uci #fefece {
        component "out" as Out #a1fdff
        component "in" as In #a1fdff
    }
}
component "Chess\nProgram" as GUI #cdffab

Main *-right-> Handler : command
Handler -up-> Action : call
Handler <-up- Action : " result"
Handler - -> Out : reply
Main <- - In : " command"
In <.. GUI : "command\n(stdin)"
Out ..> GUI : "reply\n(stdout)"

Main .up. n1
Handler .. n2
@enduml

PlantUML version 1.2021.7(Sun May 23 14:40:07 CEST 2021)
(GPL source distribution)
Java Runtime: OpenJDK Runtime Environment
JVM: OpenJDK 64-Bit Server VM
Default Encoding: UTF-8
Language: en
Country: US
--></g></svg>