<?xml version="1.0" encoding="UTF-8" standalone="no"?><svg xmlns="http://www.w3.org/2000/svg" xmlns:xlink="http://www.w3.org/1999/xlink" contentScriptType="application/ecmascript" contentStyleType="text/css" height="554px" preserveAspectRatio="none" style="width:426px;height:554px;background:#FFFFFE;" version="1.1" viewBox="0 0 426 554" width="426px" zoomAndPan="magnify"><defs/><g><!--MD5=[1354d4287b836671d015041ce990275d]
cluster Engine--><rect fill="#CDFFAB" height="411" style="stroke:#000000;stroke-width:1.5;" width="411" x="9" y="7"/><text fill="#000000" font-family="sans-serif" font-size="14" font-weight="bold" lengthAdjust="spacing" textLength="53" x="188" y="21.9951">Engine</text><!--MD5=[6ede145552bb9f32f7a4f497e33b7a70]
cluster Uci--><rect fill="#FEFECE" height="103" style="stroke:#000000;stroke-width:1.5;" width="178" x="70" y="283"/><text fill="#000000" font-family="sans-serif" font-size="14" font-weight="bold" lengthAdjust="spacing" textLength="26" x="146" y="297.9951">UCI</text><path d="M27.5,42 L27.5,82.2656 A0,0 0 0 0 27.5,82.2656 L84,82.2656 L88,167.3 L92,82.2656 L148.5,82.2656 A0,0 0 0 0 148.5,82.2656 L148.5,52 L138.5,42 L27.5,42 A0,0 0 0 0 27.5,42 " fill="#FBFB77" style="stroke:#A80036;stroke-width:1.0;"/><path d="M138.5,42 L138.5,52 L148.5,52 L138.5,42 " fill="#FBFB77" style="stroke:#A80036;stroke-width:1.0;"/><text fill="#000000" font-family="sans-serif" font-size="13" lengthAdjust="spacing" textLength="92" x="33.5" y="59.0669">Knows nothing</text><text fill="#000000" font-family="sans-serif" font-size="13" lengthAdjust="spacing" textLength="100" x="33.5" y="74.1997">about protocols</text><path d="M272,324 L272,364.2656 A0,0 0 0 0 272,364.2656 L404,364.2656 A0,0 0 0 0 404,364.2656 L404,334 L394,324 L334.67,324 L288.74,212.34 L326.67,324 L272,324 A0,0 0 0 0 272,324 " fill="#FBFB77" style="stroke:#A80036;stroke-width:1.0;"/><path d="M394,324 L394,334 L404,334 L394,324 " fill="#FBFB77" style="stroke:#A80036;stroke-width:1.0;"/><text fill="#000000" font-family="sans-serif" font-size="13" lengthAdjust="spacing" textLength="111" x="278" y="341.0669">Knows everything</text><text fill="#000000" font-family="sans-serif" font-size="13" lengthAdjust="spacing" textLength="100" x="278" y="356.1997">about protocols</text><!--MD5=[2456f3a6f5aa4d75f9c9b6fd42c52dfa]
entity Main--><rect fill="#A1FDFF" height="36.2969" style="stroke:#000000;stroke-width:1.5;" width="105" x="35.5" y="167.5"/><text fill="#000000" font-family="sans-serif" font-size="14" lengthAdjust="spacing" textLength="85" x="45.5" y="190.4951">Main Thread</text><!--MD5=[a59b687cb35fdfab55634fb65dbea243]
entity Handler--><rect fill="#F5CCFF" height="52.5938" style="stroke:#000000;stroke-width:1.5;" width="73" x="242.5" y="159"/><text fill="#000000" font-family="sans-serif" font-size="14" lengthAdjust="spacing" textLength="45" x="252.5" y="181.9951">Comm</text><text fill="#000000" font-family="sans-serif" font-size="14" lengthAdjust="spacing" textLength="53" x="252.5" y="198.292">Handler</text><!--MD5=[a096b82a31643400ba33981c0f5b0661]
entity Action--><rect fill="#F5CCFF" height="36.2969" style="stroke:#000000;stroke-width:1.5;" width="63" x="247.5" y="44"/><text fill="#000000" font-family="sans-serif" font-size="14" lengthAdjust="spacing" textLength="43" x="257.5" y="66.9951">Action</text><!--MD5=[e91435ab1f527aa0e9f53b055fdf6d98]
entity IComm--><ellipse cx="34" cy="344" fill="#FEFECE" rx="8" ry="8" style="stroke:#A80036;stroke-width:1.5;"/><text fill="#000000" font-family="sans-serif" font-size="14" lengthAdjust="spacing" textLength="48" x="14" y="373.9951">IComm</text><!--MD5=[7b05989e369ae1af2c6a9837cb382bd0]
entity Out--><rect fill="#A1FDFF" height="36.2969" style="stroke:#000000;stroke-width:1.5;" width="43" x="180.5" y="326"/><text fill="#000000" font-family="sans-serif" font-size="14" lengthAdjust="spacing" textLength="23" x="190.5" y="348.9951">out</text><!--MD5=[a88daa769981030d98eed5c15618f282]
entity In--><rect fill="#A1FDFF" height="36.2969" style="stroke:#000000;stroke-width:1.5;" width="32" x="113" y="326"/><text fill="#000000" font-family="sans-serif" font-size="14" lengthAdjust="spacing" textLength="12" x="123" y="348.9951">in</text><!--MD5=[beb5ad5244d3d849df9473931f7c2e5e]
entity GUI--><rect fill="#CDFFAB" height="52.5938" style="stroke:#000000;stroke-width:1.5;" width="78" x="126" y="496"/><text fill="#000000" font-family="sans-serif" font-size="14" lengthAdjust="spacing" textLength="44" x="136" y="518.9951">Chess</text><text fill="#000000" font-family="sans-serif" font-size="14" lengthAdjust="spacing" textLength="58" x="136" y="535.292">Program</text><!--MD5=[7bbbd378693d9edf286615553e1ef20a]
link Main to Handler--><path d="M152.7,185.5 C152.7,185.5 206.24,185.5 229.21,185.5 " fill="none" id="Main-Handler" style="stroke:#A80036;stroke-width:1.0;"/><polygon fill="#A80036" points="242.49,185.5,233.49,181.5,237.49,185.5,233.49,189.5,242.49,185.5" style="stroke:#A80036;stroke-width:1.0;"/><line style="stroke:#A80036;stroke-width:1.0;" x1="237.49" x2="229.49" y1="185.5" y2="185.5"/><polygon fill="#A80036" points="140.7,185.5,146.7,189.5,152.7,185.5,146.7,181.5,140.7,185.5" style="stroke:#A80036;stroke-width:1.0;"/><text fill="#000000" font-family="sans-serif" font-size="13" lengthAdjust="spacing" textLength="65" x="159" y="178.5669">command</text><!--MD5=[77cdefe4f57fc34dc0b1bd649eed39cb]
reverse link Action to Handler--><path d="M280.1,85.27 C280.46,93.65 280.82,103.26 281,112 C281.32,127.48 280.87,144.83 280.31,158.67 " fill="none" id="Action-backto-Handler" style="stroke:#A80036;stroke-width:1.0;"/><polygon fill="#A80036" points="279.88,80.23,276.269,89.393,280.0941,85.2254,284.2617,89.0505,279.88,80.23" style="stroke:#A80036;stroke-width:1.0;"/><text fill="#000000" font-family="sans-serif" font-size="13" lengthAdjust="spacing" textLength="21" x="282" y="125.0669">call</text><!--MD5=[034759b89e4272c9b54ab9fdeb40e86c]
link Action to Handler--><path d="M253.78,80.19 C238.87,92.67 224.13,110.54 231,129 C234.45,138.27 240.22,147.02 246.59,154.71 " fill="none" id="Action-to-Handler" style="stroke:#A80036;stroke-width:1.0;"/><polygon fill="#A80036" points="250.18,158.87,247.3219,149.445,246.9108,155.0868,241.2689,154.6757,250.18,158.87" style="stroke:#A80036;stroke-width:1.0;"/><text fill="#000000" font-family="sans-serif" font-size="13" lengthAdjust="spacing" textLength="36" x="236" y="125.0669">result</text><!--MD5=[01ee0539ada578e4ab0c9b1489f44307]
link Handler to Out--><path d="M260.61,212.07 C250.11,227.47 237.23,247.76 228,267 C219.6,284.51 212.65,305.46 208.05,320.92 " fill="none" id="Handler-to-Out" style="stroke:#A80036;stroke-width:1.0;"/><polygon fill="#A80036" points="206.58,325.95,212.94,318.43,207.98,321.15,205.26,316.19,206.58,325.95" style="stroke:#A80036;stroke-width:1.0;"/><text fill="#000000" font-family="sans-serif" font-size="13" lengthAdjust="spacing" textLength="31" x="241" y="255.0669">reply</text><!--MD5=[d3947de5ae4cec9f22d7279066330b6b]
reverse link Main to In--><path d="M93.83,208.76 C102.11,240.36 117.09,297.53 124.54,325.97 " fill="none" id="Main-backto-In" style="stroke:#A80036;stroke-width:1.0;"/><polygon fill="#A80036" points="92.47,203.55,90.8865,213.2707,93.7397,208.3861,98.6243,211.2393,92.47,203.55" style="stroke:#A80036;stroke-width:1.0;"/><text fill="#000000" font-family="sans-serif" font-size="13" lengthAdjust="spacing" textLength="65" x="111" y="255.0669">command</text><!--MD5=[f1e4206aca0977c11b1d51295e8a8821]
reverse link In to GUI--><path d="M122.49,367.12 C114.19,397.01 101.72,448.54 109,466 C113.69,477.24 121.88,487.38 130.58,495.82 " fill="none" id="In-backto-GUI" style="stroke:#A80036;stroke-width:1.0;stroke-dasharray:7.0,7.0;"/><polygon fill="#A80036" points="123.89,362.17,117.619,369.7644,122.5466,366.9862,125.3248,371.9138,123.89,362.17" style="stroke:#A80036;stroke-width:1.0;"/><text fill="#000000" font-family="sans-serif" font-size="13" lengthAdjust="spacing" textLength="65" x="110" y="447.0669">command</text><text fill="#000000" font-family="sans-serif" font-size="13" lengthAdjust="spacing" textLength="41" x="122" y="462.1997">(stdin)</text><!--MD5=[8919138d9e7cb6b09491e0b5b50bf2b4]
link Out to GUI--><path d="M199.32,362.32 C195.57,385.9 188.27,429.34 180,466 C178.16,474.14 175.92,482.89 173.74,490.98 " fill="none" id="Out-to-GUI" style="stroke:#A80036;stroke-width:1.0;stroke-dasharray:7.0,7.0;"/><polygon fill="#A80036" points="172.4,495.91,178.6233,488.2765,173.7132,491.0855,170.9041,486.1754,172.4,495.91" style="stroke:#A80036;stroke-width:1.0;"/><text fill="#000000" font-family="sans-serif" font-size="13" lengthAdjust="spacing" textLength="31" x="197" y="447.0669">reply</text><text fill="#000000" font-family="sans-serif" font-size="13" lengthAdjust="spacing" textLength="51" x="187" y="462.1997">(stdout)</text><!--MD5=[4b1f2733b69bc0357bf92e44d4742e58]
link IComm to Uci--><path d="M43.28,344 C48.975,344 54.6725,344 60.37,344 C63.2188,344 66.0675,344 68.9159,344 C69.272,344 69.628,344 69.9841,344 " fill="none" id="IComm-Uci" style="stroke:#A80036;stroke-width:1.0;"/><!--MD5=[bd8d0654d630d65b52d637aa621e52cb]
link Main to IComm--><path d="M82.12,203.55 C71.84,233.32 50.73,294.53 40.22,324.98 " fill="none" id="Main-to-IComm" style="stroke:#A80036;stroke-width:1.0;"/><path d="M45.8688,334.5457 A9,9 0 0 0 29.8838 329.0162" style="stroke:#A80036;stroke-width:1.5;fill:none;"/><!--MD5=[6d79737049c9910b2c99d0d769719177]
@startuml comm_threads
skinparam shadowing false
skinparam componentStyle rectangle
skinparam backgroundColor #FFFFFE

hide empty methods
hide empty members

component "Engine" as Engine #cdffab {
    note "Knows nothing\nabout protocols" as n1
    note "Knows everything\nabout protocols" as n2

    component "Main Thread" as Main #a1fdff
    component "Comm\nHandler" as Handler #f5ccff
    component "Action" as Action #f5ccff
    component "UCI" as Uci #fefece {
        component "out" as Out #a1fdff
        component "in" as In #a1fdff
    }

    interface "  IComm" as IComm
}
component "Chess\nProgram" as GUI #cdffab

Main *-right-> Handler : command
Handler -up-> Action : call
Handler <-up- Action : " result"
Handler - -> Out : reply
Main <- - In : " command"
In <.. GUI : "command\n(stdin)"
Out ..> GUI : "reply\n(stdout)"
Uci -left- IComm
Main - -( IComm

Main .up. n1
Handler .. n2
@enduml

PlantUML version 1.2021.7(Sun May 23 14:40:07 CEST 2021)
(GPL source distribution)
Java Runtime: OpenJDK Runtime Environment
JVM: OpenJDK 64-Bit Server VM
Default Encoding: UTF-8
Language: en
Country: US
--></g></svg>