<?xml version="1.0" encoding="UTF-8" standalone="no"?><svg xmlns="http://www.w3.org/2000/svg" xmlns:xlink="http://www.w3.org/1999/xlink" contentScriptType="application/ecmascript" contentStyleType="text/css" height="483px" preserveAspectRatio="none" style="width:664px;height:483px;background:#FFFFFF;" version="1.1" viewBox="0 0 664 483" width="664px" zoomAndPan="magnify"><defs><filter height="300%" id="fcmi2os6fcb8d" width="300%" x="-1" y="-1"><feGaussianBlur result="blurOut" stdDeviation="2.0"/><feColorMatrix in="blurOut" result="blurOut2" type="matrix" values="0 0 0 0 0 0 0 0 0 0 0 0 0 0 0 0 0 0 .4 0"/><feOffset dx="4.0" dy="4.0" in="blurOut2" result="blurOut3"/><feBlend in="SourceGraphic" in2="blurOut3" mode="normal"/></filter></defs><g><line style="stroke:#A80036;stroke-width:1.0;stroke-dasharray:5.0,5.0;" x1="26" x2="26" y1="40.2969" y2="440.1563"/><line style="stroke:#A80036;stroke-width:1.0;stroke-dasharray:5.0,5.0;" x1="106.5" x2="106.5" y1="40.2969" y2="440.1563"/><line style="stroke:#A80036;stroke-width:1.0;stroke-dasharray:5.0,5.0;" x1="199.5" x2="199.5" y1="40.2969" y2="440.1563"/><line style="stroke:#A80036;stroke-width:1.0;stroke-dasharray:5.0,5.0;" x1="262.5" x2="262.5" y1="40.2969" y2="440.1563"/><line style="stroke:#A80036;stroke-width:1.0;stroke-dasharray:5.0,5.0;" x1="344" x2="344" y1="40.2969" y2="440.1563"/><line style="stroke:#A80036;stroke-width:1.0;stroke-dasharray:5.0,5.0;" x1="440" x2="440" y1="40.2969" y2="440.1563"/><line style="stroke:#A80036;stroke-width:1.0;stroke-dasharray:5.0,5.0;" x1="537" x2="537" y1="40.2969" y2="440.1563"/><line style="stroke:#A80036;stroke-width:1.0;stroke-dasharray:5.0,5.0;" x1="618" x2="618" y1="40.2969" y2="440.1563"/><rect fill="#FEFECE" filter="url(#fcmi2os6fcb8d)" height="30.2969" style="stroke:#A80036;stroke-width:1.5;" width="38" x="5" y="5"/><text fill="#000000" font-family="sans-serif" font-size="14" lengthAdjust="spacing" textLength="24" x="12" y="24.9951">GUI</text><rect fill="#FEFECE" filter="url(#fcmi2os6fcb8d)" height="30.2969" style="stroke:#A80036;stroke-width:1.5;" width="38" x="5" y="439.1563"/><text fill="#000000" font-family="sans-serif" font-size="14" lengthAdjust="spacing" textLength="24" x="12" y="459.1514">GUI</text><rect fill="#FEFECE" filter="url(#fcmi2os6fcb8d)" height="30.2969" style="stroke:#A80036;stroke-width:1.5;" width="53" x="78.5" y="5"/><text fill="#000000" font-family="sans-serif" font-size="14" lengthAdjust="spacing" textLength="39" x="85.5" y="24.9951">UCI In</text><rect fill="#FEFECE" filter="url(#fcmi2os6fcb8d)" height="30.2969" style="stroke:#A80036;stroke-width:1.5;" width="53" x="78.5" y="439.1563"/><text fill="#000000" font-family="sans-serif" font-size="14" lengthAdjust="spacing" textLength="39" x="85.5" y="459.1514">UCI In</text><rect fill="#FEFECE" filter="url(#fcmi2os6fcb8d)" height="30.2969" style="stroke:#A80036;stroke-width:1.5;" width="53" x="171.5" y="5"/><text fill="#000000" font-family="sans-serif" font-size="14" lengthAdjust="spacing" textLength="39" x="178.5" y="24.9951">Parse</text><rect fill="#FEFECE" filter="url(#fcmi2os6fcb8d)" height="30.2969" style="stroke:#A80036;stroke-width:1.5;" width="53" x="171.5" y="439.1563"/><text fill="#000000" font-family="sans-serif" font-size="14" lengthAdjust="spacing" textLength="39" x="178.5" y="459.1514">Parse</text><rect fill="#FEFECE" filter="url(#fcmi2os6fcb8d)" height="30.2969" style="stroke:#A80036;stroke-width:1.5;" width="45" x="238.5" y="5"/><text fill="#000000" font-family="sans-serif" font-size="14" lengthAdjust="spacing" textLength="31" x="245.5" y="24.9951">Print</text><rect fill="#FEFECE" filter="url(#fcmi2os6fcb8d)" height="30.2969" style="stroke:#A80036;stroke-width:1.5;" width="45" x="238.5" y="439.1563"/><text fill="#000000" font-family="sans-serif" font-size="14" lengthAdjust="spacing" textLength="31" x="245.5" y="459.1514">Print</text><rect fill="#FEFECE" filter="url(#fcmi2os6fcb8d)" height="30.2969" style="stroke:#A80036;stroke-width:1.5;" width="66" x="309" y="5"/><text fill="#000000" font-family="sans-serif" font-size="14" lengthAdjust="spacing" textLength="52" x="316" y="24.9951">UCI Out</text><rect fill="#FEFECE" filter="url(#fcmi2os6fcb8d)" height="30.2969" style="stroke:#A80036;stroke-width:1.5;" width="66" x="309" y="439.1563"/><text fill="#000000" font-family="sans-serif" font-size="14" lengthAdjust="spacing" textLength="52" x="316" y="459.1514">UCI Out</text><rect fill="#FEFECE" filter="url(#fcmi2os6fcb8d)" height="30.2969" style="stroke:#A80036;stroke-width:1.5;" width="99" x="389" y="5"/><text fill="#000000" font-family="sans-serif" font-size="14" lengthAdjust="spacing" textLength="85" x="396" y="24.9951">Main Thread</text><rect fill="#FEFECE" filter="url(#fcmi2os6fcb8d)" height="30.2969" style="stroke:#A80036;stroke-width:1.5;" width="99" x="389" y="439.1563"/><text fill="#000000" font-family="sans-serif" font-size="14" lengthAdjust="spacing" textLength="85" x="396" y="459.1514">Main Thread</text><rect fill="#FEFECE" filter="url(#fcmi2os6fcb8d)" height="30.2969" style="stroke:#A80036;stroke-width:1.5;" width="67" x="502" y="5"/><text fill="#000000" font-family="sans-serif" font-size="14" lengthAdjust="spacing" textLength="53" x="509" y="24.9951">Handler</text><rect fill="#FEFECE" filter="url(#fcmi2os6fcb8d)" height="30.2969" style="stroke:#A80036;stroke-width:1.5;" width="67" x="502" y="439.1563"/><text fill="#000000" font-family="sans-serif" font-size="14" lengthAdjust="spacing" textLength="53" x="509" y="459.1514">Handler</text><rect fill="#FEFECE" filter="url(#fcmi2os6fcb8d)" height="30.2969" style="stroke:#A80036;stroke-width:1.5;" width="67" x="583" y="5"/><text fill="#000000" font-family="sans-serif" font-size="14" lengthAdjust="spacing" textLength="53" x="590" y="24.9951">Handler</text><rect fill="#FEFECE" filter="url(#fcmi2os6fcb8d)" height="30.2969" style="stroke:#A80036;stroke-width:1.5;" width="67" x="583" y="439.1563"/><text fill="#000000" font-family="sans-serif" font-size="14" lengthAdjust="spacing" textLength="53" x="590" y="459.1514">Handler</text><polygon fill="#A80036" points="95,67.4297,105,71.4297,95,75.4297,99,71.4297" style="stroke:#A80036;stroke-width:1.0;"/><line style="stroke:#A80036;stroke-width:1.0;stroke-dasharray:2.0,2.0;" x1="26" x2="101" y1="71.4297" y2="71.4297"/><text fill="#000000" font-family="sans-serif" font-size="13" lengthAdjust="spacing" textLength="57" x="33" y="66.3638">uci (text)</text><polygon fill="#A80036" points="188,96.5625,198,100.5625,188,104.5625,192,100.5625" style="stroke:#A80036;stroke-width:1.0;"/><line style="stroke:#A80036;stroke-width:1.0;stroke-dasharray:2.0,2.0;" x1="107" x2="194" y1="100.5625" y2="100.5625"/><text fill="#000000" font-family="sans-serif" font-size="13" lengthAdjust="spacing" textLength="57" x="114" y="95.4966">uci (text)</text><polygon fill="#A80036" points="118,125.6953,108,129.6953,118,133.6953,114,129.6953" style="stroke:#A80036;stroke-width:1.0;"/><line style="stroke:#A80036;stroke-width:1.0;stroke-dasharray:2.0,2.0;" x1="112" x2="199" y1="129.6953" y2="129.6953"/><text fill="#000000" font-family="sans-serif" font-size="13" lengthAdjust="spacing" textLength="69" x="124" y="124.6294">uci (enum)</text><polygon fill="#A80036" points="428.5,154.8281,438.5,158.8281,428.5,162.8281,432.5,158.8281" style="stroke:#A80036;stroke-width:1.0;"/><line style="stroke:#A80036;stroke-width:1.0;stroke-dasharray:2.0,2.0;" x1="107" x2="434.5" y1="158.8281" y2="158.8281"/><text fill="#000000" font-family="sans-serif" font-size="13" lengthAdjust="spacing" textLength="69" x="114" y="153.7622">uci (enum)</text><polygon fill="#A80036" points="606.5,183.9609,616.5,187.9609,606.5,191.9609,610.5,187.9609" style="stroke:#A80036;stroke-width:1.0;"/><line style="stroke:#A80036;stroke-width:1.0;stroke-dasharray:2.0,2.0;" x1="440.5" x2="612.5" y1="187.9609" y2="187.9609"/><text fill="#000000" font-family="sans-serif" font-size="13" lengthAdjust="spacing" textLength="69" x="447.5" y="182.895">uci (enum)</text><polygon fill="#A80036" points="355,213.0938,345,217.0938,355,221.0938,351,217.0938" style="stroke:#A80036;stroke-width:1.0;"/><line style="stroke:#A80036;stroke-width:1.0;stroke-dasharray:2.0,2.0;" x1="349" x2="617.5" y1="217.0938" y2="217.0938"/><text fill="#000000" font-family="sans-serif" font-size="13" lengthAdjust="spacing" textLength="97" x="361" y="212.0278">Identify (enum)</text><polygon fill="#A80036" points="274,242.2266,264,246.2266,274,250.2266,270,246.2266" style="stroke:#A80036;stroke-width:1.0;"/><line style="stroke:#A80036;stroke-width:1.0;stroke-dasharray:2.0,2.0;" x1="268" x2="343" y1="246.2266" y2="246.2266"/><text fill="#000000" font-family="sans-serif" font-size="13" lengthAdjust="spacing" textLength="21" x="280" y="241.1606">id()</text><polygon fill="#A80036" points="37,301.625,27,305.625,37,309.625,33,305.625" style="stroke:#A80036;stroke-width:1.0;"/><line style="stroke:#A80036;stroke-width:1.0;stroke-dasharray:2.0,2.0;" x1="31" x2="262" y1="305.625" y2="305.625"/><text fill="#000000" font-family="sans-serif" font-size="13" lengthAdjust="spacing" textLength="84" x="43" y="270.2935">engine name</text><text fill="#000000" font-family="sans-serif" font-size="13" lengthAdjust="spacing" textLength="83" x="43" y="285.4263">author name</text><text fill="#000000" font-family="sans-serif" font-size="13" lengthAdjust="spacing" textLength="35" x="43" y="300.5591">(text)</text><polygon fill="#A80036" points="274,330.7578,264,334.7578,274,338.7578,270,334.7578" style="stroke:#A80036;stroke-width:1.0;"/><line style="stroke:#A80036;stroke-width:1.0;stroke-dasharray:2.0,2.0;" x1="268" x2="343" y1="334.7578" y2="334.7578"/><text fill="#000000" font-family="sans-serif" font-size="13" lengthAdjust="spacing" textLength="57" x="280" y="329.6919">options()</text><polygon fill="#A80036" points="37,359.8906,27,363.8906,37,367.8906,33,363.8906" style="stroke:#A80036;stroke-width:1.0;"/><line style="stroke:#A80036;stroke-width:1.0;stroke-dasharray:2.0,2.0;" x1="31" x2="262" y1="363.8906" y2="363.8906"/><text fill="#000000" font-family="sans-serif" font-size="13" lengthAdjust="spacing" textLength="112" x="43" y="358.8247">UCI options (text)</text><polygon fill="#A80036" points="274,389.0234,264,393.0234,274,397.0234,270,393.0234" style="stroke:#A80036;stroke-width:1.0;"/><line style="stroke:#A80036;stroke-width:1.0;stroke-dasharray:2.0,2.0;" x1="268" x2="343" y1="393.0234" y2="393.0234"/><text fill="#000000" font-family="sans-serif" font-size="13" lengthAdjust="spacing" textLength="43" x="280" y="387.9575">uciok()</text><polygon fill="#A80036" points="37,418.1563,27,422.1563,37,426.1563,33,422.1563" style="stroke:#A80036;stroke-width:1.0;"/><line style="stroke:#A80036;stroke-width:1.0;stroke-dasharray:2.0,2.0;" x1="31" x2="262" y1="422.1563" y2="422.1563"/><text fill="#000000" font-family="sans-serif" font-size="13" lengthAdjust="spacing" textLength="72" x="43" y="417.0903">uciok (text)</text><!--MD5=[2fa3598b75ca55ca1a2c2be41fe0aae7]
@startuml comm_sequence
participant "GUI" as GUI
participant "UCI In" as UciIn
participant "Parse" as Parse
participant "Print" as Print
participant "UCI Out" as UciOut
participant "Main Thread" as MT
participant "Handler" as HexagonBorderColor

GUI - -> UciIn : uci (text)
UciIn - -> Parse : uci (text)
UciIn <- - Parse : uci (enum)
UciIn - -> MT : uci (enum)
MT - -> Handler : uci (enum)
UciOut <- - Handler : Identify (enum)
Print <- - UciOut : id()
GUI <- - Print : engine name\nauthor name\n(text)
Print <- - UciOut : options()
GUI <- - Print : UCI options (text)
Print <- - UciOut : uciok()
GUI <- - Print : uciok (text)
@enduml

PlantUML version 1.2021.7(Sun May 23 14:40:07 CEST 2021)
(GPL source distribution)
Java Runtime: OpenJDK Runtime Environment
JVM: OpenJDK 64-Bit Server VM
Default Encoding: UTF-8
Language: en
Country: US
--></g></svg>