<?xml version="1.0" encoding="UTF-8" standalone="no"?><svg xmlns="http://www.w3.org/2000/svg" xmlns:xlink="http://www.w3.org/1999/xlink" contentScriptType="application/ecmascript" contentStyleType="text/css" height="353px" preserveAspectRatio="none" style="width:161px;height:353px;background:#FFFFFE;" version="1.1" viewBox="0 0 161 353" width="161px" zoomAndPan="magnify"><defs/><g><!--MD5=[89b32fd22c7afa88e0ae1984250e1822]
entity Engine--><rect fill="#CDFFAB" height="36.2969" style="stroke:#000000;stroke-width:1.5;" width="68" x="40.5" y="7"/><text fill="#000000" font-family="sans-serif" font-size="14" lengthAdjust="spacing" textLength="48" x="50.5" y="29.9951">Engine</text><!--MD5=[e91435ab1f527aa0e9f53b055fdf6d98]
entity IComm--><rect fill="#FFDC96" height="36.2969" style="stroke:#000000;stroke-width:1.5;" width="68" x="40.5" y="103"/><text fill="#000000" font-family="sans-serif" font-size="14" lengthAdjust="spacing" textLength="48" x="50.5" y="125.9951">IComm</text><!--MD5=[f5bd6f86c1355628a58cd48367c1c291]
entity Uci--><rect fill="#A1FDFF" height="36.2969" style="stroke:#000000;stroke-width:1.5;" width="43" x="7" y="199"/><text fill="#000000" font-family="sans-serif" font-size="14" lengthAdjust="spacing" textLength="23" x="17" y="221.9951">UCI</text><!--MD5=[07bb0ef4b23ed48ab26ad6dc6ccda7f9]
entity XBoard--><rect fill="#A1FDFF" height="36.2969" style="stroke:#000000;stroke-width:1.5;" width="70" x="85.5" y="199"/><text fill="#000000" font-family="sans-serif" font-size="14" lengthAdjust="spacing" textLength="50" x="95.5" y="221.9951">XBoard</text><!--MD5=[beb5ad5244d3d849df9473931f7c2e5e]
entity GUI--><rect fill="#CDFFAB" height="52.5938" style="stroke:#000000;stroke-width:1.5;" width="126" x="11.5" y="295"/><text fill="#000000" font-family="sans-serif" font-size="14" lengthAdjust="spacing" textLength="106" x="21.5" y="317.9951">Chess Program</text><text fill="#000000" font-family="sans-serif" font-size="14" lengthAdjust="spacing" textLength="106" x="21.5" y="334.292">(User Interface)</text><!--MD5=[9966e320f5d303ddf3adf1b667bcf855]
reverse link Engine to IComm--><path d="M74.5,56.39 C74.5,71.78 74.5,89.91 74.5,102.87 " fill="none" id="Engine-backto-IComm" style="stroke:#A80036;stroke-width:1.0;"/><polygon fill="#A80036" points="74.5,43.24,70.5,49.24,74.5,55.24,78.5,49.24,74.5,43.24" style="stroke:#A80036;stroke-width:1.0;"/><!--MD5=[416db41f77c4103c5e5d1f8412824d61]
reverse link IComm to Uci--><path d="M57.05,157.66 C50.14,171.79 42.51,187.37 36.88,198.87 " fill="none" id="IComm-backto-Uci" style="stroke:#A80036;stroke-width:1.0;"/><polygon fill="none" points="50.98,154.13,66.06,139.24,63.56,160.28,50.98,154.13" style="stroke:#A80036;stroke-width:1.0;"/><!--MD5=[41c2d4f10d5fff81e0c92935ae66a3e5]
reverse link IComm to XBoard--><path d="M91.95,157.66 C98.86,171.79 106.49,187.37 112.12,198.87 " fill="none" id="IComm-backto-XBoard" style="stroke:#A80036;stroke-width:1.0;"/><polygon fill="none" points="85.44,160.28,82.94,139.24,98.02,154.13,85.44,160.28" style="stroke:#A80036;stroke-width:1.0;"/><!--MD5=[97777214f4d7f76ce00ec712761eafca]
link Uci to GUI--><path d="M38.46,240.19 C45.01,254.78 53.66,274.07 60.85,290.08 " fill="none" id="Uci-GUI" style="stroke:#A80036;stroke-width:1.0;stroke-dasharray:7.0,7.0;"/><polygon fill="#A80036" points="63.03,294.94,63.01,285.0912,60.99,290.3751,55.7061,288.3551,63.03,294.94" style="stroke:#A80036;stroke-width:1.0;"/><polygon fill="#A80036" points="36.3,235.39,36.3456,245.2388,38.3518,239.9496,43.641,241.9558,36.3,235.39" style="stroke:#A80036;stroke-width:1.0;"/><!--MD5=[d5392b2b8ae9d4c3f064353e7ee6b5a8]
link XBoard to GUI--><path d="M110.54,240.19 C103.99,254.78 95.34,274.07 88.15,290.08 " fill="none" id="XBoard-GUI" style="stroke:#A80036;stroke-width:1.0;stroke-dasharray:7.0,7.0;"/><polygon fill="#A80036" points="85.97,294.94,93.2939,288.3551,88.01,290.3751,85.99,285.0912,85.97,294.94" style="stroke:#A80036;stroke-width:1.0;"/><polygon fill="#A80036" points="112.7,235.39,105.359,241.9558,110.6482,239.9496,112.6544,245.2388,112.7,235.39" style="stroke:#A80036;stroke-width:1.0;"/><!--MD5=[dfc01de7681e80604432cb37626a6e10]
@startuml comm
skinparam shadowing false
skinparam componentStyle rectangle
skinparam backgroundColor #FFFFFE

hide empty methods
hide empty members

component "Engine" as Engine #cdffab
component IComm #ffdc96
component "UCI" as Uci #a1fdff
component "XBoard" as XBoard #a1fdff
component "Chess Program\n(User Interface)" as GUI #cdffab

Engine *- - IComm
IComm <|- - Uci
IComm <|- - XBoard
Uci <..> GUI
XBoard <..> GUI
@enduml

PlantUML version 1.2021.7(Sun May 23 14:40:07 CEST 2021)
(GPL source distribution)
Java Runtime: OpenJDK Runtime Environment
JVM: OpenJDK 64-Bit Server VM
Default Encoding: UTF-8
Language: en
Country: US
--></g></svg>